<svg id="Capa_1" enable-background="new 0 0 512 512" height="512" viewBox="0 0 512 512" width="512" xmlns="http://www.w3.org/2000/svg"><g><path d="m431.031 113.12-73.411 23.88h-118.62v-74h44.469c6.276 18.58 23.86 32 44.531 32h48c25.916 0 47-21.084 47-47 0-25.936-20.96-48-47-48h-48c-21.169 0-38.515 14.474-44.595 33-63.556 0-59.608-.03-60.697.065-2.886.244-5.666 1.313-8.036 3.2-1.129.896 6.058-6.209-101.106 100.956-21.09 2.072-37.947 18.765-40.282 39.779h-17.284c-8.284 0-15 6.716-15 15s6.716 15 15 15h17v59c0 24.813 20.187 45 45 45h22.288l13.159 52.638c1.67 6.677 7.67 11.362 14.553 11.362h21.458l-104.418 111.76c-8.938 9.566-2.08 25.24 10.957 25.24 4.01 0 8.01-1.599 10.964-4.76l102.039-109.214v98.974c0 8.284 6.716 15 15 15s15-6.716 15-15v-98.974l102.04 109.214c2.954 3.162 6.953 4.76 10.964 4.76 13.032 0 19.901-15.669 10.957-25.24l-104.419-111.76h21.458c6.883 0 12.883-4.685 14.552-11.362l13.16-52.638h49.909l73.411 23.88c19.599 6.907 39.969-7.719 39.969-28.295v-165.17c-.001-20.613-20.41-35.185-39.97-28.295zm-103.031-83.12h48c9.056 0 17 8.411 17 18 0 9.374-7.626 17-17 17h-48c-9.374 0-17-7.626-17-17 0-9.589 7.944-18 17-18zm-119 107h-52.787l52.787-52.787zm-106 129v-84c0-8.271 6.729-15 15-15h227v114c-29.15 0-192.445 0-227 0-8.271 0-15-6.729-15-15zm165.289 79c-10.782 0-77.691 0-88.577 0l-8.5-34h105.577zm106.711-59.895v-122.21l65.514-21.312c.726-.24.482-12.872.535 165.017-.1 0-5.156-1.686-66.049-21.495z"/><path d="m281.29 218.93c1.682 8.116 9.352 13.332 17.64 11.78 8.08-1.693 13.34-9.301 11.78-17.641-1.834-8.786-10.564-13.946-19.07-11.42-7.867 2.572-11.727 9.971-10.35 17.281z"/><path d="m224 248c0-8.284-6.716-15-15-15h-81c-8.284 0-15 6.716-15 15s6.716 15 15 15h81c8.284 0 15-6.716 15-15z"/></g></svg>