<svg height="437pt" viewBox="0 -39 437.20266 437" width="437pt" xmlns="http://www.w3.org/2000/svg"><path d="m410.019531 358.566406h-125.90625c-14.882812 0-26.988281-12.105468-26.988281-26.988281 0-5.046875 1.410156-9.980469 4.078125-14.265625l62.953125-101.109375c3.808594-6.117187 9.773438-10.386719 16.792969-12.019531 7.019531-1.628906 14.261719-.433594 20.378906 3.375 3.488281 2.171875 6.476563 5.164062 8.644531 8.644531l62.957032 101.109375c7.863281 12.632812 3.984374 29.308594-8.648438 37.175781-4.285156 2.667969-9.214844 4.078125-14.261719 4.078125zm-62.929687-141.097656c-.988282 0-1.980469.113281-2.96875.34375-3.382813.785156-6.253906 2.839844-8.085938 5.789062l-62.953125 101.109376c-1.285156 2.0625-1.964843 4.433593-1.964843 6.867187 0 7.164063 5.832031 12.992187 12.996093 12.992187h125.90625c2.429688 0 4.804688-.679687 6.867188-1.964843 2.945312-1.832031 5.003906-4.703125 5.789062-8.085938.785157-3.378906.207031-6.863281-1.625-9.8125l-62.953125-101.105469c-1.046875-1.679687-2.484375-3.117187-4.164062-4.164062-2.085938-1.300781-4.445313-1.96875-6.84375-1.96875zm0 0"/><path d="m347.066406 308.363281c-3.867187 0-7-3.132812-7-6.996093v-45.695313c0-3.867187 3.132813-6.996094 7-6.996094 3.863282 0 6.996094 3.128907 6.996094 6.996094v45.695313c0 3.863281-3.132812 6.996093-6.996094 6.996093zm0 0"/><path d="m347.066406 331.351562c-3.867187 0-7-3.128906-7-6.996093v-5.128907c0-3.867187 3.132813-7 7-7 3.863282 0 6.996094 3.132813 6.996094 7v5.128907c0 3.867187-3.132812 6.996093-6.996094 6.996093zm0 0"/><path d="m276.769531 312.546875h-229.792969c-25.902343 0-46.976562-21.074219-46.976562-46.980469v-218.503906c0-25.90625 21.074219-46.9804688 46.976562-46.9804688h259.878907c25.90625 0 46.980469 21.0742188 46.980469 46.9804688v163.410156c0 3.863282-3.132813 6.996094-6.996094 6.996094-3.867188 0-7-3.132812-7-6.996094v-163.410156c0-18.1875-14.796875-32.984375-32.984375-32.984375h-259.878907c-18.1875 0-32.984374 14.796875-32.984374 32.984375v218.503906c0 18.1875 14.796874 32.984375 32.984374 32.984375h229.792969c3.867188 0 6.996094 3.132813 6.996094 7 0 3.863281-3.128906 6.996094-6.996094 6.996094zm0 0"/><path d="m346.839844 95.382812h-339.84375c-3.863282 0-6.996094-3.132812-6.996094-6.996093s3.132812-6.996094 6.996094-6.996094h339.84375c3.863281 0 6.996094 3.132813 6.996094 6.996094 0 3.867187-3.132813 6.996093-6.996094 6.996093zm0 0"/><path d="m100.332031 67.617188c-10.785156 0-19.558593-8.773438-19.558593-19.554688 0-10.785156 8.773437-19.558594 19.558593-19.558594 10.78125 0 19.554688 8.773438 19.554688 19.558594 0 10.78125-8.773438 19.554688-19.554688 19.554688zm0-25.117188c-3.066406 0-5.5625 2.496094-5.5625 5.5625s2.496094 5.5625 5.5625 5.5625c3.066407 0 5.5625-2.496094 5.5625-5.5625s-2.496093-5.5625-5.5625-5.5625zm0 0"/><path d="m43.914062 67.441406c-10.78125 0-19.554687-8.773437-19.554687-19.558594 0-10.78125 8.773437-19.554687 19.554687-19.554687 10.785157 0 19.558594 8.773437 19.558594 19.554687 0 10.785157-8.773437 19.558594-19.558594 19.558594zm0-25.117187c-3.066406 0-5.5625 2.492187-5.5625 5.558593 0 3.070313 2.496094 5.5625 5.5625 5.5625 3.066407 0 5.5625-2.492187 5.5625-5.5625 0-3.066406-2.496093-5.558593-5.5625-5.558593zm0 0"/><path d="m156.746094 67.792969c-10.78125 0-19.554688-8.773438-19.554688-19.554688 0-10.785156 8.773438-19.554687 19.554688-19.554687 10.785156 0 19.554687 8.769531 19.554687 19.554687 0 10.78125-8.769531 19.554688-19.554687 19.554688zm0-25.117188c-3.066406 0-5.5625 2.496094-5.5625 5.5625 0 3.066407 2.496094 5.5625 5.5625 5.5625s5.5625-2.496093 5.5625-5.5625c0-3.066406-2.496094-5.5625-5.5625-5.5625zm0 0"/></svg>